<?xml version="1.0" ?><svg xmlns="http://www.w3.org/2000/svg" xmlns:xlink="http://www.w3.org/1999/xlink" version="1.1" viewBox="0 0 94 94" style="enable-background:new 0 0 94 94;" xml:space="preserve"><style type="text/css">
	.st0{display:none;}
	.st1{display:inline;fill:#FEA900;}
	.st2{display:inline;}
	.st3{display:inline;fill:#F9CD6C;}
	.st4{display:inline;fill:none;stroke:#000000;stroke-width:0.25;stroke-miterlimit:10;}
	.st5{stroke:#000000;stroke-linecap:round;stroke-linejoin:round;stroke-miterlimit:10;}
	.st6{opacity:0.2;stroke:#000000;stroke-linecap:round;stroke-linejoin:round;stroke-miterlimit:10;}
	.st7{fill:#F12A00;stroke:#000000;stroke-linecap:round;stroke-linejoin:round;stroke-miterlimit:10;}
	.st8{fill:#FBECCF;stroke:#000000;stroke-linecap:round;stroke-linejoin:round;stroke-miterlimit:10;}
	.st9{opacity:0.2;fill:#F12A00;}
	.st10{fill:#F7C86C;stroke:#000000;stroke-linecap:round;stroke-linejoin:round;stroke-miterlimit:10;}
	.st11{fill:none;stroke:#000000;stroke-linecap:round;stroke-linejoin:round;stroke-miterlimit:10;}
	.st12{display:inline;stroke:#000000;stroke-linecap:round;stroke-linejoin:round;stroke-miterlimit:10;}
	.st13{fill:#FAAC01;stroke:#000000;stroke-linecap:round;stroke-linejoin:round;stroke-miterlimit:10;}
	.st14{fill:#FAAC01;}
	.st15{display:inline;fill:#FAEBCE;stroke:#000000;stroke-width:0.25;stroke-miterlimit:10;}
	.st16{display:inline;fill:none;stroke:#000000;stroke-width:1.0164;stroke-miterlimit:10;}
	.st17{display:inline;fill:#FAEBCE;stroke:#000000;stroke-width:1.0164;stroke-miterlimit:10;}
	.st18{fill:#FEA900;}
	.st19{fill:#F9CD6C;}
	.st20{fill:none;stroke:#000000;stroke-width:1.0164;stroke-miterlimit:10;}
	.st21{fill:#FAEBCE;stroke:#000000;stroke-width:1.0164;stroke-miterlimit:10;}
	.st22{display:inline;fill:#FAEBCE;}
	.st23{fill:#008FF5;stroke:#000000;stroke-linecap:round;stroke-linejoin:round;stroke-miterlimit:10;}
	.st24{fill:#D0E6FB;stroke:#000000;stroke-linecap:round;stroke-linejoin:round;stroke-miterlimit:10;}
	.st25{fill:#FFFFFF;stroke:#000000;stroke-linecap:round;stroke-linejoin:round;stroke-miterlimit:10;}
	.st26{fill:#75D95D;stroke:#000000;stroke-linecap:round;stroke-linejoin:round;stroke-miterlimit:10;}
	.st27{fill:#CAF3BB;}
	.st28{fill:#FFFFFF;}
	.st29{fill:#CAF3BB;stroke:#000000;stroke-linecap:round;stroke-linejoin:round;stroke-miterlimit:10;}
	.st30{display:inline;fill:#D0E6FB;stroke:#000000;stroke-linecap:round;stroke-linejoin:round;stroke-miterlimit:10;}
	.st31{stroke:#FFFFFF;stroke-linecap:round;stroke-linejoin:round;stroke-miterlimit:10;}
	.st32{fill:#B4B2FB;stroke:#000000;stroke-linecap:round;stroke-linejoin:round;stroke-miterlimit:10;}
	.st33{fill:#018BEE;}
	.st34{display:inline;fill:none;stroke:#000000;stroke-linecap:round;stroke-linejoin:round;stroke-miterlimit:10;}
	.st35{fill:#75D95D;}
	.st36{fill:#4949F7;stroke:#000000;stroke-linecap:round;stroke-linejoin:round;stroke-miterlimit:10;}
	.st37{fill:#D0E6FB;}
	.st38{fill:#6FBBF7;stroke:#000000;stroke-linecap:round;stroke-linejoin:round;stroke-miterlimit:10;}
	.st39{fill:#018BEE;stroke:#000000;stroke-linecap:round;stroke-linejoin:round;stroke-miterlimit:10;}
	.st40{fill:#B4B2FB;}
	.st41{fill:#E8E9FE;}
	.st42{fill:#B4B2FB;stroke:#000F24;stroke-miterlimit:10;}
	.st43{stroke:#000000;stroke-miterlimit:10;}
	.st44{fill:#E8E9FE;stroke:#000000;stroke-linecap:round;stroke-linejoin:round;stroke-miterlimit:10;}
	.st45{opacity:0.3;fill:#018BEE;}
	.st46{fill:#6FBBF7;}
	.st47{fill:#FAAC01;stroke:#FFFFFF;stroke-linecap:round;stroke-linejoin:round;stroke-miterlimit:10;}
	.st48{fill:#006A2F;}
	.st49{opacity:0.1;}
	.st50{fill:#FCD4CA;stroke:#000000;stroke-linecap:round;stroke-linejoin:round;stroke-miterlimit:10;}
	.st51{fill:#006A2F;stroke:#000000;stroke-linecap:round;stroke-linejoin:round;stroke-miterlimit:10;}
	.st52{fill:#4949F7;}
	.st53{fill:#F12A00;}
	.st54{fill:#D0E6FB;stroke:#018BEE;stroke-linecap:round;stroke-linejoin:round;stroke-miterlimit:10;}
	.st55{fill:#9CD7FF;}
	.st56{fill:#F7C86C;}
	.st57{opacity:0.3;stroke:#000000;stroke-linecap:round;stroke-linejoin:round;stroke-miterlimit:10;}
	.st58{opacity:0.1;stroke:#000000;stroke-linecap:round;stroke-linejoin:round;stroke-miterlimit:10;}
	.st59{opacity:0.3;fill:#006A2F;}
	.st60{stroke:#000000;stroke-width:1.0825;stroke-linecap:round;stroke-linejoin:round;stroke-miterlimit:10;}
	.st61{fill:#D0E6FB;stroke:#000000;stroke-width:1.0825;stroke-linecap:round;stroke-linejoin:round;stroke-miterlimit:10;}
	.st62{fill:#6FBBF7;stroke:#000000;stroke-width:1.0825;stroke-linecap:round;stroke-linejoin:round;stroke-miterlimit:10;}
	.st63{fill:none;stroke:#000000;stroke-width:1.0825;stroke-linecap:round;stroke-linejoin:round;stroke-miterlimit:10;}
	.st64{fill:#CAF3BB;stroke:#000000;stroke-width:0.7876;stroke-linecap:round;stroke-linejoin:round;stroke-miterlimit:10;}
	.st65{fill:#6FBBF7;stroke:#FFFFFF;stroke-linecap:round;stroke-linejoin:round;stroke-miterlimit:10;}
	.st66{opacity:0.2;}
	.st67{stroke:#E8E9FE;stroke-linecap:round;stroke-linejoin:round;stroke-miterlimit:10;}
	.st68{fill:#FCD4CA;}
	.st69{fill:#FBECCF;}
	.st70{opacity:0.1;fill:#F12A00;}
	.st71{opacity:0.5;stroke:#000000;stroke-linecap:round;stroke-linejoin:round;stroke-miterlimit:10;}
	.st72{fill:#6FBBF7;stroke:#E8E9FE;stroke-linecap:round;stroke-linejoin:round;stroke-miterlimit:10;}
	.st73{opacity:0.5;fill:#D0E6FB;}
	.st74{fill:#70BAF7;}
	.st75{fill:none;stroke:#FFFFFF;stroke-linecap:round;stroke-linejoin:round;stroke-miterlimit:10;}
	.st76{fill:#70BAF7;stroke:#70BAF7;stroke-linecap:round;stroke-linejoin:round;stroke-miterlimit:10;}
	.st77{fill:#018BEE;stroke:#018BEE;stroke-linecap:round;stroke-linejoin:round;stroke-miterlimit:10;}
	.st78{fill:#70BAF7;stroke:#000000;stroke-linecap:round;stroke-linejoin:round;stroke-miterlimit:10;}
	.st79{fill:#F9CD6C;stroke:#000000;stroke-linecap:round;stroke-linejoin:round;stroke-miterlimit:10;}
	.st80{fill:none;}
	.st81{fill:#006A2F;stroke:#006A2F;stroke-miterlimit:10;}
	.st82{fill:#B4DFFC;}
	.st83{fill:#6FBBF7;stroke:#018BEE;stroke-linecap:round;stroke-linejoin:round;stroke-miterlimit:10;}
	.st84{fill:none;stroke:#FBECCF;stroke-linecap:round;stroke-linejoin:round;stroke-miterlimit:10;}
	.st85{fill:none;stroke:#018BEE;stroke-linecap:round;stroke-linejoin:round;stroke-miterlimit:10;}
	.st86{fill:#010101;stroke:#FFFFFF;stroke-linecap:round;stroke-linejoin:round;stroke-miterlimit:10;}
	.st87{fill:#010101;stroke:#000000;stroke-linecap:round;stroke-linejoin:round;stroke-miterlimit:10;}
	.st88{fill:#75D95D;stroke:#FFFFFF;stroke-linecap:round;stroke-linejoin:round;stroke-miterlimit:10;}
	.st89{fill:#94F279;stroke:#000000;stroke-linecap:round;stroke-linejoin:round;stroke-miterlimit:10;}
	.st90{fill:#8C8CF9;}
	.st91{fill:#008FF5;}
	.st92{fill:#8CD8F9;}
	.st93{fill:#FFC043;}
	.st94{fill:#94F279;}
	.st95{fill:#FF3D1D;}
	.st96{fill:#31B1FF;}
	.st97{fill:#FFCF7B;}
	.st98{fill:#B2FF99;}
	.st99{fill:#D7D7FF;}
	.st100{fill:#FF7C6E;}
	.st101{fill:#5CC9FF;}
	.st102{fill:#F12A00;stroke:#FFFFFF;stroke-linecap:round;stroke-linejoin:round;stroke-miterlimit:10;}
	.st103{fill:#F7C86C;stroke:#000000;stroke-width:1.0164;stroke-miterlimit:10;}
</style><g id="Refrences" class="st0"/><g id="Tittle"/><g id="Icons"><g><g><g><path class="st5" d="M60.6,80.41v3.3c0,1.45,1.14,2.62,2.54,2.62h23.71c1.4,0,2.54-1.17,2.54-2.62v-3.3H60.6z"/><g><g><path class="st5" d="M66.88,80.41h-3.32c-0.23,0.1-0.39,0.33-0.39,0.6v2.91c0,0.36,0.28,0.65,0.64,0.65h2.83        c0.35,0,0.64-0.29,0.64-0.65v-2.91C67.26,80.74,67.1,80.51,66.88,80.41z"/><path class="st5" d="M73.4,80.41h-3.32c-0.23,0.1-0.39,0.33-0.39,0.6v2.91c0,0.36,0.28,0.65,0.64,0.65h2.83        c0.35,0,0.64-0.29,0.64-0.65v-2.91C73.79,80.74,73.63,80.51,73.4,80.41z"/><path class="st5" d="M79.93,80.41h-3.32c-0.23,0.1-0.39,0.33-0.39,0.6v2.91c0,0.36,0.28,0.65,0.64,0.65h2.83        c0.35,0,0.64-0.29,0.64-0.65v-2.91C80.32,80.74,80.16,80.51,79.93,80.41z"/><path class="st5" d="M86.46,80.41h-3.32c-0.23,0.1-0.39,0.33-0.39,0.6v2.91c0,0.36,0.28,0.65,0.64,0.65h2.83        c0.35,0,0.64-0.29,0.64-0.65v-2.91C86.84,80.74,86.68,80.51,86.46,80.41z"/></g></g><g><g><path class="st5" d="M63.16,80.41v2.64c0,0.36,0.28,0.65,0.64,0.65h2.83c0.35,0,0.64-0.29,0.64-0.65v-2.64H63.16z"/><path class="st5" d="M69.69,80.41v2.64c0,0.36,0.28,0.65,0.64,0.65h2.83c0.35,0,0.64-0.29,0.64-0.65v-2.64H69.69z"/><path class="st5" d="M76.22,80.41v2.64c0,0.36,0.28,0.65,0.64,0.65h2.83c0.35,0,0.64-0.29,0.64-0.65v-2.64H76.22z"/><path class="st5" d="M82.74,80.41v2.64c0,0.36,0.28,0.65,0.64,0.65h2.83c0.35,0,0.64-0.29,0.64-0.65v-2.64H82.74z"/></g></g><path class="st5" d="M89.75,79.47L89.75,79.47c-0.44,0-0.8-0.36-0.8-0.8V52.02c0-0.44,0.36-0.8,0.8-0.8l0,0      c0.44,0,0.8,0.36,0.8,0.8v26.65C90.54,79.11,90.19,79.47,89.75,79.47z"/><path class="st32" d="M86.46,83.1h-22.9c-1.63,0-2.95-1.32-2.95-2.95V48.83c0-1.63,1.32-2.95,2.95-2.95h22.9      c1.63,0,2.95,1.32,2.95,2.95v31.32C89.4,81.78,88.08,83.1,86.46,83.1z"/><path class="st24" d="M84.4,48.45H65.61c-0.35,0-0.63-0.28-0.63-0.63l0,0c0-0.35,0.28-0.63,0.63-0.63H84.4      c0.35,0,0.63,0.28,0.63,0.63l0,0C85.02,48.17,84.74,48.45,84.4,48.45z"/><path class="st24" d="M86.07,58.55H63.94c-0.74,0-1.34-0.6-1.34-1.34v-5.99c0-0.74,0.6-1.34,1.34-1.34h22.13      c0.74,0,1.34,0.6,1.34,1.34v5.99C87.41,57.95,86.81,58.55,86.07,58.55z"/><g><g><path class="st5" d="M66.53,66.28H63.9c-0.41,0-0.74-0.33-0.74-0.74V62.8c0-0.41,0.33-0.74,0.74-0.74h2.62        c0.41,0,0.74,0.33,0.74,0.74v2.75C67.26,65.95,66.93,66.28,66.53,66.28z"/><path class="st5" d="M73.05,66.28h-2.62c-0.41,0-0.74-0.33-0.74-0.74V62.8c0-0.41,0.33-0.74,0.74-0.74h2.62        c0.41,0,0.74,0.33,0.74,0.74v2.75C73.79,65.95,73.46,66.28,73.05,66.28z"/><path class="st5" d="M79.58,66.28h-2.62c-0.41,0-0.74-0.33-0.74-0.74V62.8c0-0.41,0.33-0.74,0.74-0.74h2.62        c0.41,0,0.74,0.33,0.74,0.74v2.75C80.32,65.95,79.99,66.28,79.58,66.28z"/><path class="st5" d="M86.11,66.28h-2.62c-0.41,0-0.74-0.33-0.74-0.74V62.8c0-0.41,0.33-0.74,0.74-0.74h2.62        c0.41,0,0.74,0.33,0.74,0.74v2.75C86.84,65.95,86.51,66.28,86.11,66.28z"/></g><g><path class="st5" d="M66.53,73.47H63.9c-0.41,0-0.74-0.33-0.74-0.74v-2.75c0-0.41,0.33-0.74,0.74-0.74h2.62        c0.41,0,0.74,0.33,0.74,0.74v2.75C67.26,73.14,66.93,73.47,66.53,73.47z"/><path class="st5" d="M73.05,73.47h-2.62c-0.41,0-0.74-0.33-0.74-0.74v-2.75c0-0.41,0.33-0.74,0.74-0.74h2.62        c0.41,0,0.74,0.33,0.74,0.74v2.75C73.79,73.14,73.46,73.47,73.05,73.47z"/><path class="st5" d="M79.58,73.47h-2.62c-0.41,0-0.74-0.33-0.74-0.74v-2.75c0-0.41,0.33-0.74,0.74-0.74h2.62        c0.41,0,0.74,0.33,0.74,0.74v2.75C80.32,73.14,79.99,73.47,79.58,73.47z"/><path class="st5" d="M86.11,73.47h-2.62c-0.41,0-0.74-0.33-0.74-0.74v-2.75c0-0.41,0.33-0.74,0.74-0.74h2.62        c0.41,0,0.74,0.33,0.74,0.74v2.75C86.84,73.14,86.51,73.47,86.11,73.47z"/></g><g><path class="st5" d="M66.53,80.65H63.9c-0.41,0-0.74-0.33-0.74-0.74v-2.75c0-0.41,0.33-0.74,0.74-0.74h2.62        c0.41,0,0.74,0.33,0.74,0.74v2.75C67.26,80.32,66.93,80.65,66.53,80.65z"/><path class="st5" d="M73.05,80.65h-2.62c-0.41,0-0.74-0.33-0.74-0.74v-2.75c0-0.41,0.33-0.74,0.74-0.74h2.62        c0.41,0,0.74,0.33,0.74,0.74v2.75C73.79,80.32,73.46,80.65,73.05,80.65z"/><path class="st5" d="M79.58,80.65h-2.62c-0.41,0-0.74-0.33-0.74-0.74v-2.75c0-0.41,0.33-0.74,0.74-0.74h2.62        c0.41,0,0.74,0.33,0.74,0.74v2.75C80.32,80.32,79.99,80.65,79.58,80.65z"/><path class="st5" d="M86.11,80.65h-2.62c-0.41,0-0.74-0.33-0.74-0.74v-2.75c0-0.41,0.33-0.74,0.74-0.74h2.62        c0.41,0,0.74,0.33,0.74,0.74v2.75C86.84,80.32,86.51,80.65,86.11,80.65z"/></g></g><g><g><path class="st24" d="M66.53,65.41H63.9c-0.41,0-0.74-0.33-0.74-0.74v-2.75c0-0.41,0.33-0.74,0.74-0.74h2.62        c0.41,0,0.74,0.33,0.74,0.74v2.75C67.26,65.08,66.93,65.41,66.53,65.41z"/><path class="st24" d="M73.05,65.41h-2.62c-0.41,0-0.74-0.33-0.74-0.74v-2.75c0-0.41,0.33-0.74,0.74-0.74h2.62        c0.41,0,0.74,0.33,0.74,0.74v2.75C73.79,65.08,73.46,65.41,73.05,65.41z"/><path class="st24" d="M79.58,65.41h-2.62c-0.41,0-0.74-0.33-0.74-0.74v-2.75c0-0.41,0.33-0.74,0.74-0.74h2.62        c0.41,0,0.74,0.33,0.74,0.74v2.75C80.32,65.08,79.99,65.41,79.58,65.41z"/><path class="st24" d="M86.11,65.41h-2.62c-0.41,0-0.74-0.33-0.74-0.74v-2.75c0-0.41,0.33-0.74,0.74-0.74h2.62        c0.41,0,0.74,0.33,0.74,0.74v2.75C86.84,65.08,86.51,65.41,86.11,65.41z"/></g><g><path class="st24" d="M66.53,72.59H63.9c-0.41,0-0.74-0.33-0.74-0.74v-2.75c0-0.41,0.33-0.74,0.74-0.74h2.62        c0.41,0,0.74,0.33,0.74,0.74v2.75C67.26,72.26,66.93,72.59,66.53,72.59z"/><path class="st24" d="M73.05,72.59h-2.62c-0.41,0-0.74-0.33-0.74-0.74v-2.75c0-0.41,0.33-0.74,0.74-0.74h2.62        c0.41,0,0.74,0.33,0.74,0.74v2.75C73.79,72.26,73.46,72.59,73.05,72.59z"/><path class="st24" d="M79.58,72.59h-2.62c-0.41,0-0.74-0.33-0.74-0.74v-2.75c0-0.41,0.33-0.74,0.74-0.74h2.62        c0.41,0,0.74,0.33,0.74,0.74v2.75C80.32,72.26,79.99,72.59,79.58,72.59z"/><path class="st24" d="M86.11,72.59h-2.62c-0.41,0-0.74-0.33-0.74-0.74v-2.75c0-0.41,0.33-0.74,0.74-0.74h2.62        c0.41,0,0.74,0.33,0.74,0.74v2.75C86.84,72.26,86.51,72.59,86.11,72.59z"/></g><g><path class="st24" d="M66.53,79.78H63.9c-0.41,0-0.74-0.33-0.74-0.74V76.3c0-0.41,0.33-0.74,0.74-0.74h2.62        c0.41,0,0.74,0.33,0.74,0.74v2.75C67.26,79.45,66.93,79.78,66.53,79.78z"/><path class="st24" d="M73.05,79.78h-2.62c-0.41,0-0.74-0.33-0.74-0.74V76.3c0-0.41,0.33-0.74,0.74-0.74h2.62        c0.41,0,0.74,0.33,0.74,0.74v2.75C73.79,79.45,73.46,79.78,73.05,79.78z"/><path class="st24" d="M79.58,79.78h-2.62c-0.41,0-0.74-0.33-0.74-0.74V76.3c0-0.41,0.33-0.74,0.74-0.74h2.62        c0.41,0,0.74,0.33,0.74,0.74v2.75C80.32,79.45,79.99,79.78,79.58,79.78z"/><path class="st24" d="M86.11,79.78h-2.62c-0.41,0-0.74-0.33-0.74-0.74V76.3c0-0.41,0.33-0.74,0.74-0.74h2.62        c0.41,0,0.74,0.33,0.74,0.74v2.75C86.84,79.45,86.51,79.78,86.11,79.78z"/></g></g><line class="st31" x1="68.17" y1="84.58" x2="81.83" y2="84.58"/><polygon class="st46" points="68.33,58.55 64.85,58.55 70.32,49.93 73.79,49.93     "/><polygon class="st46" points="78.48,58.55 75,58.55 80.47,49.93 83.94,49.93     "/><path class="st11" d="M86.07,58.55H63.94c-0.74,0-1.34-0.6-1.34-1.34v-5.99c0-0.74,0.6-1.34,1.34-1.34h22.13      c0.74,0,1.34,0.6,1.34,1.34v5.99C87.41,57.95,86.81,58.55,86.07,58.55z"/></g><g><g><g><g><g><path class="st5" d="M88.77,17.33c-0.64-2.53-3.15-4.14-5.73-3.59l-37.7,7.99c-2.58,0.55-4.23,3.03-3.78,5.61L88.77,17.33z"/><path class="st5" d="M80.73,19.03c-0.5-0.52-0.88-1.18-1.04-1.94l-29.94,6.35c0.16,0.76,0.09,1.51-0.16,2.2L80.73,19.03z"/><path class="st5" d="M80.73,19.03c-0.5-0.52-0.88-1.18-1.04-1.94l-29.94,6.35c0.16,0.76,0.09,1.51-0.16,2.2L80.73,19.03z"/></g><g><path class="st26" d="M88.45,37.33l-38.5,8.16c-2.42,0.51-4.79-1.03-5.3-3.45l-2.9-13.68c-0.51-2.42,1.03-4.79,3.45-5.3          l38.5-8.16c2.42-0.51,4.79,1.03,5.3,3.45l2.9,13.68C92.41,34.44,90.87,36.82,88.45,37.33z"/><path class="st29" d="M65.81,39.49l17.84-3.78c-0.46-2.18,0.93-4.33,3.11-4.79l-2.01-9.47c-2.18,0.46-4.33-0.93-4.79-3.11          l-16.19,3.43l-0.73,0.15l-13.03,2.76c0.46,2.18-0.93,4.33-3.11,4.79l2.01,9.47c2.18-0.46,4.33,0.93,4.79,3.11l14.67-3.11          L65.81,39.49z"/><path class="st59" d="M48.57,37.31l0.35,1.63c2.18-0.46,4.33,0.93,4.79,3.11l29.94-6.35c-0.46-2.18,0.93-4.33,3.11-4.79          l-1.23-5.78C78.02,35.5,65.38,39.14,48.57,37.31z"/><circle class="st26" cx="65.75" cy="30.98" r="5.15"/><g><g><path d="M65.32,28.92c-0.28,0.06-0.55-0.12-0.61-0.4l-0.18-0.84c-0.06-0.28,0.12-0.55,0.4-0.61            c0.28-0.06,0.55,0.12,0.61,0.4l0.18,0.84C65.77,28.58,65.59,28.86,65.32,28.92z"/></g><g><g><path d="M66.4,34.05c-0.99,0.21-1.96-0.42-2.17-1.41c-0.06-0.28,0.12-0.55,0.4-0.61c0.28-0.06,0.55,0.12,0.61,0.4             c0.09,0.43,0.51,0.7,0.94,0.61s0.7-0.51,0.61-0.94c-0.09-0.43-0.51-0.7-0.94-0.61c-0.99,0.21-1.96-0.42-2.17-1.41             s0.42-1.96,1.41-2.17c0.99-0.21,1.96,0.42,2.17,1.41c0.06,0.28-0.12,0.55-0.4,0.61c-0.28,0.06-0.55-0.12-0.61-0.4             c-0.09-0.43-0.51-0.7-0.94-0.61s-0.7,0.51-0.61,0.94c0.09,0.43,0.51,0.7,0.94,0.61c0.99-0.21,1.96,0.42,2.17,1.41             C68.02,32.87,67.39,33.84,66.4,34.05z"/></g><g><path d="M66.58,34.89c-0.28,0.06-0.55-0.12-0.61-0.4l-0.18-0.84c-0.06-0.28,0.12-0.55,0.4-0.61s0.55,0.12,0.61,0.4             l0.18,0.84C67.04,34.55,66.86,34.83,66.58,34.89z"/></g></g></g><circle class="st26" cx="53.9" cy="33.49" r="1.76"/><circle class="st26" cx="78.82" cy="28.21" r="1.76"/><path class="st11" d="M65.81,39.49l17.84-3.78c-0.46-2.18,0.93-4.33,3.11-4.79l-2.01-9.47c-2.18,0.46-4.33-0.93-4.79-3.11          l-16.19,3.43l-0.73,0.15l-13.03,2.76c0.46,2.18-0.93,4.33-3.11,4.79l2.01,9.47c2.18-0.46,4.33,0.93,4.79,3.11l14.67-3.11          L65.81,39.49z"/></g></g></g></g><g><g><path class="st5" d="M53.06,5.98H6.62C4.07,5.98,2,8.05,2,10.6v8.21h55.68V10.6C57.68,8.05,55.61,5.98,53.06,5.98z"/><rect x="2" y="11.86" class="st5" width="52.06" height="6.95"/><rect x="2" y="11.86" class="st5" width="49.8" height="6.95"/><rect x="2" y="11.86" class="st5" width="49.8" height="6.95"/><path class="st24" d="M53.29,9.04H6.62C4.07,9.04,2,11.11,2,13.66v37.43c0,2.55,2.07,4.62,4.62,4.62h46.67        c2.43,0,4.39-1.97,4.39-4.39V13.43C57.68,11.01,55.71,9.04,53.29,9.04z"/><rect x="2" y="14.91" class="st5" width="52.06" height="34.92"/><rect x="2" y="14.91" class="st38" width="49.8" height="34.92"/><path class="st33" d="M51.8,31.04V14.91H26.33C39.09,16.04,48.06,20.95,51.8,31.04z"/><path class="st5" d="M12.95,49.83H8.83V32.97c0-0.48,0.39-0.86,0.86-0.86h2.4c0.48,0,0.86,0.39,0.86,0.86V49.83z"/><path class="st5" d="M24.63,49.83H20.5V27.39c0-0.48,0.39-0.86,0.86-0.86h2.4c0.48,0,0.86,0.39,0.86,0.86V49.83z"/><path class="st5" d="M36.3,49.83h-4.12V38.16c0-0.48,0.39-0.86,0.86-0.86h2.4c0.48,0,0.86,0.39,0.86,0.86V49.83z"/><path class="st5" d="M47.98,49.83h-4.12V32.97c0-0.48,0.39-0.86,0.86-0.86h2.4c0.48,0,0.86,0.39,0.86,0.86V49.83z"/><path class="st26" d="M11.61,49.83H7.49V32.97c0-0.48,0.39-0.86,0.86-0.86h2.4c0.48,0,0.86,0.39,0.86,0.86V49.83z"/><path class="st10" d="M23.29,49.83h-4.12V27.39c0-0.48,0.39-0.86,0.86-0.86h2.4c0.48,0,0.86,0.39,0.86,0.86V49.83z"/><path class="st24" d="M34.97,49.83h-4.12V38.16c0-0.48,0.39-0.86,0.86-0.86h2.4c0.48,0,0.86,0.39,0.86,0.86V49.83z"/><path class="st50" d="M46.65,49.83h-4.12V32.97c0-0.48,0.39-0.86,0.86-0.86h2.4c0.48,0,0.86,0.39,0.86,0.86V49.83z"/><rect x="2" y="14.91" class="st11" width="49.8" height="34.92"/></g></g></g><g><g><g><polyline class="st11" points="75.47,54.21 71.74,54.21 71.74,51.69 75.47,51.69       "/><polyline class="st11" points="71.74,54.21 75.47,54.21 75.47,56.73 71.74,56.73       "/></g><g><polyline class="st11" points="84.83,54.21 81.11,54.21 81.11,51.69 84.83,51.69       "/><polyline class="st11" points="81.11,54.21 84.83,54.21 84.83,56.73 81.11,56.73       "/></g></g><g><line class="st11" x1="78.29" y1="53.04" x2="78.29" y2="55.38"/><line class="st11" x1="77.12" y1="54.21" x2="79.46" y2="54.21"/></g></g></g><g><g><polyline class="st10" points="48.61,65.97 54.9,63.31 54.9,62.44 48.61,60.65     "/><path class="st24" d="M12.13,60.65h2.97v5.33h-2.97c-1.47,0-2.66-1.2-2.66-2.66c0-0.73,0.3-1.4,0.78-1.89      C10.73,60.95,11.4,60.65,12.13,60.65z"/><rect x="15.1" y="60.65" class="st38" width="33.51" height="5.33"/><rect x="15.1" y="60.65" class="st39" width="3.82" height="5.33"/></g><g><polyline class="st10" points="48.61,65.1 54.9,62.44 48.61,59.78     "/><path class="st24" d="M12.13,59.77h2.97v5.33h-2.97c-1.47,0-2.66-1.2-2.66-2.66c0-0.73,0.3-1.4,0.78-1.89      C10.73,60.07,11.4,59.77,12.13,59.77z"/><rect x="15.1" y="59.77" class="st38" width="33.51" height="5.33"/><rect x="15.1" y="59.77" class="st39" width="3.82" height="5.33"/></g></g><g><path class="st5" d="M36.56,76.46c-3.23-1.88-6.31-2.08-9.16,0v-3.02c2.85-1.39,5.93-1.23,9.16,0V76.46z"/><path class="st5" d="M29.21,73.25c-6.5-1.9-13.38-2.12-20.55-1.09c-0.63,0.09-1.11,0.62-1.14,1.25     c-0.13,2.75,0.11,9.95,5.84,12.94c7.15,3.74,13.04,0,13.04,0s2.77-0.53,3.76-11.72C30.21,74.01,29.81,73.42,29.21,73.25z"/><path class="st5" d="M24.73,72.32c-1.45-0.2-2.98-0.3-4.58-0.3L13.37,86.1c1.58,0.46,3.1,1.99,4.53,1.72L24.73,72.32z"/><path class="st5" d="M33.85,73.25c6.5-1.9,13.38-2.12,20.55-1.09c0.63,0.09,1.11,0.62,1.14,1.25c0.13,2.75-0.11,9.95-5.84,12.94     c-7.15,3.74-13.04,0-13.04,0s-2.77-0.53-3.76-11.72C32.85,74.01,33.24,73.42,33.85,73.25z"/><path class="st5" d="M29.21,73.25c-6.5-1.9-13.38-2.12-20.55-1.09c-0.63,0.09-1.11,0.62-1.14,1.25     c-0.13,2.75,0.11,9.95,5.84,12.94c7.15,3.74,13.04,0,13.04,0s2.77-0.53,3.76-11.72C30.21,74.01,29.81,73.42,29.21,73.25z"/><path class="st5" d="M38.55,72.32c1.45-0.2,2.98-0.3,4.58-0.3l6.78,14.08c-1.58,0.46-3.1,1.99-4.53,1.72L38.55,72.32z"/><path class="st5" d="M33.85,73.25c6.5-1.9,13.38-2.12,20.55-1.09c0.63,0.09,1.11,0.62,1.14,1.25c0.13,2.75-0.11,9.95-5.84,12.94     c-7.15,3.74-13.04,0-13.04,0s-2.77-0.53-3.76-11.72C32.85,74.01,33.24,73.42,33.85,73.25z"/></g><g><path class="st5" d="M35.33,76.46c-3.23-1.88-6.31-2.08-9.16,0v-3.02c2.85-1.39,5.93-1.23,9.16,0V76.46z"/><path class="st38" d="M27.98,73.25c-6.5-1.9-13.38-2.12-20.55-1.09c-0.63,0.09-1.11,0.62-1.14,1.25     c-0.13,2.75,0.11,9.95,5.84,12.94c7.15,3.74,13.04,0,13.04,0s2.77-0.53,3.76-11.72C28.98,74.01,28.58,73.42,27.98,73.25z"/><path class="st33" d="M23.49,72.32c-1.45-0.2-2.98-0.3-4.58-0.3L12.13,86.1c1.58,0.46,3.1,1.99,4.53,1.72L23.49,72.32z"/><path class="st38" d="M32.61,73.25c6.5-1.9,13.38-2.12,20.55-1.09c0.63,0.09,1.11,0.62,1.14,1.25c0.13,2.75-0.11,9.95-5.84,12.94     c-7.15,3.74-13.04,0-13.04,0s-2.77-0.53-3.76-11.72C31.61,74.01,32.01,73.42,32.61,73.25z"/><path class="st11" d="M27.98,73.25c-6.5-1.9-13.38-2.12-20.55-1.09c-0.63,0.09-1.11,0.62-1.14,1.25     c-0.13,2.75,0.11,9.95,5.84,12.94c7.15,3.74,13.04,0,13.04,0s2.77-0.53,3.76-11.72C28.98,74.01,28.58,73.42,27.98,73.25z"/><path class="st33" d="M37.32,72.32c1.45-0.2,2.98-0.3,4.58-0.3l6.78,14.08c-1.58,0.46-3.1,1.99-4.53,1.72L37.32,72.32z"/><path class="st11" d="M32.61,73.25c6.5-1.9,13.38-2.12,20.55-1.09c0.63,0.09,1.11,0.62,1.14,1.25c0.13,2.75-0.11,9.95-5.84,12.94     c-7.15,3.74-13.04,0-13.04,0s-2.77-0.53-3.76-11.72C31.61,74.01,32.01,73.42,32.61,73.25z"/></g></g></g><g id="Layer_4"/></svg>